<?xml version="1.0" encoding="UTF-8"?>
<svg width="106px" height="110px" viewBox="0 0 106 110" version="1.1" xmlns="http://www.w3.org/2000/svg" xmlns:xlink="http://www.w3.org/1999/xlink">
    <!-- Generator: Sketch 58 (84663) - https://sketch.com -->
    <title>Artboard</title>
    <desc>Created with Sketch.</desc>
    <g id="Artboard" stroke="none" stroke-width="1" fill="none" fill-rule="evenodd">
        <g id="Color" transform="translate(9.000000, 8.000000)" fill-rule="nonzero">
            <path d="M13.1852981,34.6152994 L18.1226397,37.8218828 C18.5875611,38.1206328 19.2031189,37.9745772 19.4846742,37.4965772 L35.4297583,10.4630217 C35.6196306,10.144355 36.0780458,10.144355 36.2679181,10.4630217 L52.2130022,37.4965772 C52.4945575,37.9745772 53.1166214,38.1206328 53.5750367,37.8218828 L58.5123783,34.6152994 C58.957715,34.3298272 59.0952064,33.7323272 58.8267297,33.2742439 L39.7712597,0.962798222 C39.4176725,0.365301542 38.7824636,0.000162082497 38.0948739,0.000162082497 L33.6028025,0.000162082497 C32.9152128,0.000162082497 32.2800039,0.365301542 31.9264167,0.962798222 L12.8709467,33.2742439 C12.60247,33.7323272 12.7399614,34.3298272 13.1852981,34.6152994 Z" id="Path" fill="#2AE7A8"></path>
            <path d="M71.4258139,54.6448272 L63.8426758,41.7852994 C63.5611206,41.3072994 62.9389903,41.1612439 62.4806414,41.4599939 L57.5432333,44.6665772 C57.0979631,44.9520494 56.9604053,45.5495494 57.2289483,46.0076328 L61.5638772,53.3568828 C61.7013686,53.5892439 61.6293367,53.881355 61.4067347,54.0274106 L36.1107756,70.4585278 C35.9470606,70.56475 35.7440433,70.56475 35.5869008,70.4585278 L10.2974478,54.0274106 C10.0747794,53.881355 10.00932,53.582605 10.1403053,53.3568828 L14.4752342,46.0076328 C14.7437108,45.5495494 14.6062194,44.9520494 14.1609492,44.6665772 L9.22354111,41.4599939 C8.75861972,41.1612439 8.14306194,41.3072994 7.86150667,41.7852994 L0.278594997,54.6448272 C-0.264911583,55.5609939 0.0101165381,56.749355 0.900684778,57.3269383 L34.8011219,79.3546389 C35.4428369,79.7728889 36.2679181,79.7728889 36.9096331,79.3546389 L70.809725,57.3269383 C71.6873861,56.749355 71.9622361,55.5609939 71.4258139,54.6448272 Z" id="Path" fill="#0E0E21"></path>
        </g>
    </g>
</svg>