<svg xmlns="http://www.w3.org/2000/svg" version="1.1" viewBox="64.07500457763672 64.07499694824219 639.8499755859375 639.9249877929688" style="box-shadow: none; border-radius: 0px; opacity: 1;" preserveAspectRatio="xMidYMid meet" fill="#edff89" fill-opacity="1" width="768" height="768">
<title/>
<g id="icomoon-ignore">
</g>
<path d="M384 488c0 27.7-10.8 53.8-30.4 73.5l-48.1 48.1c-40.5 40.5-106.5 40.5-147 0s-40.5-106.5 0-147l48.1-48.1c19.6-19.6 45.7-30.4 73.5-30.4h7.9v-64h-7.9c-44.9 0-87 17.5-118.8 49.2l-48.1 48.1c-65.5 65.5-65.5 172 0 237.5 32.7 32.7 75.7 49.1 118.8 49.1 43 0 86-16.4 118.8-49.1l48.1-48.1c31.6-31.8 49.1-74 49.1-118.8v-8h-64v8z"/>
<path d="M654.8 113.2c-65.5-65.5-172-65.5-237.5 0l-48.1 48.1c-31.7 31.7-49.2 73.9-49.2 118.7v8h64v-8c0-27.7 10.8-53.8 30.4-73.5l48.1-48.1c40.5-40.5 106.5-40.5 147 0s40.5 106.5 0 147l-48.1 48.1c-19.6 19.6-45.7 30.4-73.5 30.4h-7.9v64h7.9c44.9 0 87-17.5 118.8-49.2l48.1-48.1c65.5-65.4 65.5-171.9 0-237.4z"/>
<path d="M257.353 465.387l208.029-208.029 45.254 45.254-208.029 208.029-45.254-45.254z"/>
</svg>