<?xml version="1.0" encoding="UTF-8"?>
<svg width="302px" height="456px" viewBox="0 0 302 456" version="1.1" xmlns="http://www.w3.org/2000/svg" xmlns:xlink="http://www.w3.org/1999/xlink">
    <!-- Generator: Sketch 58 (84663) - https://sketch.com -->
    <title>portis_icon</title>
    <desc>Created with Sketch.</desc>
    <g id="Page-1" stroke="none" stroke-width="1" fill="none" fill-rule="evenodd">
        <g id="portis_icon" fill-rule="nonzero">
            <g id="Layer_2_1_">
                <g id="Layer_1-2">
                    <polygon id="Path" fill="#133444" points="4.8 262.3 15.7 257.5 151 198.7 297.2 262.3 242.3 375.7 108 394.7 7 285.7"></polygon>
                    <path d="M266.8,192.3 C242.7,163.2 208.4,144.3 171,139.3 C170.2,139.2 169.4,139.1 168.6,139 C156.9,137.6 145.1,137.6 133.4,139 C132.6,139.1 131.8,139.2 131,139.3 C93.5,144.3 59.3,163.2 35.2,192.3 L35.2,192.3 L29.1,202.4 L19,219.2 L11.6,231.5 L11.6,231.5 C11.5,231.8 11.3,232.2 11.2,232.5 L11.1,232.7 L27.5,242.4 L131,303.7 L151,315.5 L151,169 L131,178.1 L131,156.2 L151,147.1 L171,156.2 L272.9,202.5 L266.8,192.3 Z" id="Path" fill="#C42370"></path>
                    <path d="M301.7,298.7 C301.7,347.5 278.5,393.1 242.6,422.5 C228.5,434.1 212.3,443.1 195,448.9 C180.8,453.6 166,456 151.1,456 C67.8,456 0.3,382 0.3,298.7 C0.3,286.4 1.8,274.2 4.7,262.2 L151,348.8 L297.2,262.3 C300.2,274.2 301.7,286.5 301.7,298.7 Z" id="Path" fill="#1C4D6B"></path>
                    <polygon id="Path" fill="#000000" points="133.4 139.1 151 147.1 131 156.2 131 138"></polygon>
                    <polygon id="Path" fill="#000000" points="131 178.1 151 169 151 315.6 131 303.7"></polygon>
                    <polygon id="Path" fill="#1D4259" points="151 169 151 315.6 291.1 232.7"></polygon>
                    <polygon id="Path" fill="#4B6B9A" points="151 0.2 151 169 291.1 232.7"></polygon>
                    <path d="M151,169 L151,315.5 L131,303.7 L11,232.7 L10.8,232.6 L11.1,232.5 C11.2,232.2 11.4,231.8 11.5,231.5 L11.5,231.5 L29,202.4 L131,156.2 L131,178.2 L151,169 Z" id="Path" fill="#343535"></path>
                    <polygon id="Path" fill="#3E5578" points="151 169 151 315.6 131 303.7 11 232.8 10.9 232.7 11.1 232.6 131 178.1"></polygon>
                    <polygon id="Path" fill="#6DB2D8" points="151 0.2 151 169 10.9 232.7"></polygon>
                    <path d="M94.3,444 C96.4,444.9 98.5,445.8 100.6,446.6 C98.5,445.8 96.4,445 94.3,444 Z" id="Path" fill="#335F8A"></path>
                    <path d="M100.6,446.6 C102.7,447.4 104.9,448.2 107.1,448.9 C104.9,448.2 102.7,447.5 100.6,446.6 Z" id="Path" fill="#335F8A"></path>
                    <path d="M112.6,450.7 C114.3,451.2 115.9,451.6 117.6,452 C116,451.6 114.3,451.1 112.6,450.7 Z" id="Path" fill="#335F8A"></path>
                    <path d="M4.8,262.3 L151,348.8 C149,362 145.5,374.8 140.5,387.2 C128.8,415.5 105.2,445.4 59.4,422.6 L59.4,422.6 C23.4,393.2 0.3,347.5 0.3,298.7 C0.3,286.5 1.8,274.2 4.8,262.3 Z" id="Path" fill="#6DB2D8"></path>
                    <path d="M242.5,422.6 L242.1,422.9 C241.3,423.5 240.6,424.1 239.8,424.7 L239.6,424.9 C238.8,425.6 237.9,426.2 237.1,426.8 C236.2,427.5 235.3,428.2 234.3,428.8 C233.3,429.4 232.4,430.1 231.5,430.8 C230.6,431.5 229.8,431.9 229,432.5 L228.5,432.8 C227.6,433.4 226.7,433.9 225.9,434.5 C225.8,434.6 225.7,434.6 225.6,434.7 C224.7,435.3 223.8,435.8 222.9,436.3 C222,436.8 220.9,437.5 219.9,438 C218.9,438.6 217.9,439.1 216.9,439.6 L216.8,439.7 C215.8,440.2 214.8,440.7 213.8,441.2 C212.8,441.7 211.8,442.2 210.7,442.7 C209.6,443.2 208.6,443.7 207.6,444.1 C205.5,445 203.4,445.9 201.3,446.7 C199.2,447.5 197,448.3 194.8,449 C193.9,449.3 193.1,449.6 192.2,449.8 C191.3,450.1 190.2,450.4 189.3,450.7 C187.6,451.2 186,451.6 184.3,452 C183.7,452.2 183,452.3 182.4,452.5 L181.3,452.7 C180.4,452.9 179.5,453.1 178.6,453.3 C177.7,453.5 177,453.6 176.1,453.8 C175.2,454 174.6,454.1 173.8,454.2 C173,454.3 172.1,454.5 171.3,454.6 C170.9,454.7 170.5,454.7 170.1,454.8 L168.2,455 L167.1,455.1 C166.4,455.2 165.7,455.3 165,455.3 C164.1,455.4 163.3,455.5 162.4,455.5 C161.7,455.5 161.1,455.6 160.4,455.7 C159.7,455.7 159.2,455.8 158.6,455.8 L158.5,455.8 C157.8,455.8 157.1,455.9 156.5,455.9 C155.6,455.9 154.6,456 153.7,456 C152.8,456 151.8,456 150.8,456 C149.8,456 148.9,456 147.9,456 C146.9,456 146,456 145.1,455.9 C144.4,455.9 143.7,455.8 143,455.8 L142.9,455.8 C142.3,455.8 141.7,455.7 141.1,455.7 C140.5,455.7 139.8,455.6 139.1,455.5 C138.2,455.4 137.4,455.4 136.5,455.3 C135.8,455.2 135.1,455.2 134.4,455.1 L133.4,455 C132.8,454.9 132.1,454.8 131.5,454.8 C131.1,454.8 130.7,454.7 130.3,454.6 C129.5,454.5 128.6,454.4 127.8,454.2 C127,454.1 126.3,453.9 125.5,453.8 C124.7,453.7 123.9,453.5 123,453.3 C122.2,453.1 121.2,452.9 120.3,452.7 L119.2,452.5 C118.6,452.4 117.9,452.2 117.3,452 C115.6,451.6 114,451.1 112.3,450.7 L109.3,449.8 C108.4,449.5 107.6,449.3 106.7,449 C104.5,448.3 102.4,447.5 100.2,446.7 C98,445.9 95.9,445 93.9,444.1 C92.9,443.6 91.8,443.2 90.8,442.7 C89.8,442.2 88.7,441.7 87.7,441.2 C86.7,440.7 85.7,440.2 84.7,439.7 L84.6,439.6 C83.6,439.1 82.6,438.5 81.6,438 C80.6,437.5 79.6,436.9 78.6,436.3 C77.6,435.7 76.8,435.2 75.9,434.7 L75.6,434.5 C74.7,434 73.8,433.4 73,432.8 L72.5,432.5 C71.7,432 70.8,431.4 70,430.8 C69.2,430.2 68.1,429.5 67.2,428.8 C66.3,428.1 65.4,427.5 64.4,426.8 C63.5,426.1 62.7,425.5 61.9,424.9 L61.7,424.7 C60.9,424.1 60.2,423.5 59.4,422.9 L59,422.6 C104.7,445.4 128.4,415.4 140.1,387.2 C145.1,374.9 148.6,362 150.6,348.8 C152.6,362 156.1,374.8 161.1,387.2 C173.2,415.4 196.8,445.3 242.5,422.6 Z" id="Path" fill="#529BBA"></path>
                    <path d="M184.3,452 C186,451.6 187.7,451.1 189.3,450.7 C187.7,451.2 186,451.6 184.3,452 Z" id="Path" fill="#335F8A"></path>
                    <path d="M194.9,449 C197.1,448.3 199.2,447.5 201.4,446.7 C199.3,447.5 197.1,448.2 194.9,449 Z" id="Path" fill="#335F8A"></path>
                    <path d="M201.4,446.6 C203.5,445.8 205.6,444.9 207.7,444 C205.7,445 203.5,445.8 201.4,446.6 Z" id="Path" fill="#335F8A"></path>
                    <path d="M301.7,298.7 C301.7,347.5 278.5,393.1 242.6,422.6 C196.9,445.4 173.2,415.4 161.5,387.2 C156.5,374.9 153,362 151,348.8 L297.2,262.3 C300.2,274.2 301.7,286.5 301.7,298.7 Z" id="Path" fill="#4B6B9A"></path>
                </g>
            </g>
        </g>
    </g>
</svg>