<?xml version="1.0" standalone="no"?><svg xmlns="http://www.w3.org/2000/svg" viewBox="0 0 1440 320"><path fill="#0099ff" fill-opacity="1" d="M0,128L34.3,149.3C68.6,171,137,213,206,229.3C274.3,245,343,235,411,224C480,213,549,203,617,186.7C685.7,171,754,149,823,165.3C891.4,181,960,235,1029,261.3C1097.1,288,1166,288,1234,272C1302.9,256,1371,224,1406,208L1440,192L1440,320L1405.7,320C1371.4,320,1303,320,1234,320C1165.7,320,1097,320,1029,320C960,320,891,320,823,320C754.3,320,686,320,617,320C548.6,320,480,320,411,320C342.9,320,274,320,206,320C137.1,320,69,320,34,320L0,320Z"></path></svg>