<?xml version="1.0" encoding="UTF-8"?>
<svg width="178px" height="178px" viewBox="0 0 178 178" version="1.1" xmlns="http://www.w3.org/2000/svg" xmlns:xlink="http://www.w3.org/1999/xlink">
    <!-- Generator: Sketch 58 (84663) - https://sketch.com -->
    <title>Combined Shape</title>
    <desc>Created with Sketch.</desc>
    <g id="Page-2" stroke="none" stroke-width="1" fill="none" fill-rule="evenodd">
        <path d="M89,0 C138.153343,0 178,39.8466573 178,89 C178,138.153343 138.153343,178 89,178 C39.8466573,178 0,138.153343 0,89 C0,39.8466573 39.8466573,0 89,0 Z M97.9598356,38 L62.3651566,38 C59.9474973,38.0407501 58,40.0194828 58,42.4544271 L58,42.4544271 L58,131.620516 C58.0406169,134.045901 60.0128816,136 62.4400779,136 L62.4400779,136 L127.634837,136 C130.052291,135.95925 132,133.980515 132,131.545356 L132,131.545356 L132,72.1501014 L131.998919,72.0517588 C131.973716,70.9058655 131.508827,69.8124506 130.699057,69.0002347 L130.699057,69.0002347 L101.099186,39.3045604 L101.029097,39.235792 C100.20352,38.4434371 99.1045746,38 97.9598356,38 L97.9598356,38 Z M118.657822,106 C121.05576,106 123,108.014467 123,110.5 C123,112.959953 121.095236,114.958835 118.731084,114.999372 L118.657822,115 L72.3421785,115 C69.9440286,115 68,112.985313 68,110.5 C68,108.040047 69.9047642,106.041165 72.2689155,106.000628 L118.657822,106 Z M118.657822,89 C121.05576,89 123,91.0144673 123,93.5 C123,95.9599531 121.095236,97.9588349 118.731084,97.9993723 L118.657822,98 L72.3421785,98 C69.9440286,98 68,95.9850943 68,93.5 C68,91.0400469 69.9047642,89.0411651 72.2689155,89.0006277 L118.657822,89 Z M95,45 L125,75 L95,75 L95,45 Z" id="Combined-Shape" fill="#FFFFFF"></path>
    </g>
</svg>