<?xml version="1.0" encoding="UTF-8"?>
<svg width="434px" height="785px" viewBox="0 0 434 785" version="1.1" xmlns="http://www.w3.org/2000/svg" xmlns:xlink="http://www.w3.org/1999/xlink">
    <!-- Generator: Sketch 58 (84663) - https://sketch.com -->
    <title>Artboard</title>
    <desc>Created with Sketch.</desc>
    <g id="Artboard" stroke="none" stroke-width="1" fill="none" fill-rule="evenodd">
        <path d="M396.313781,455.676 L210.791061,710 L32.0354373,459.487 L211.790042,563.5 L396.313781,455.676 Z M204.797177,343 C230.488356,357.7875 269.730928,411.128125 269.730928,451.265625 C269.730928,484.808294 240.659097,512 204.797177,512 C168.935256,512 139.863425,484.808294 139.863425,451.265625 C139.863425,411.128125 203.103253,363.06875 204.797177,343 Z M210.791061,46 L401,408.047 L302.4785,466.414239 C309.656979,450.47107 313.686082,432.551073 313.686082,413.609375 C313.686082,334.046875 246.671845,228.3125 202.799215,199 C201.269575,220.036041 189.171157,267.382473 160.372935,308.921875 C158.821469,311.159755 138.456266,302.616369 136.922033,304.881561 L135.494824,306.99737 C112.24102,341.614713 91.9123477,379.090011 91.9123477,413.609375 C91.9123477,428.586585 94.4313722,442.925019 99.0345263,456.15251 L15.6331717,405.267 L210.791061,46 Z M6.99898079,421.161 L6.99898079,424.4 L6,423 L6.99898079,421.161 Z" id="Shape" fill="#FFFFFF"></path>
    </g>
</svg>