<svg xmlns="http://www.w3.org/2000/svg" xmlns:xlink="http://www.w3.org/1999/xlink" viewBox="4 3 19 20" version="1.1" style="opacity: 1; box-shadow: none; border-radius: 0px;" preserveAspectRatio="xMidYMid meet" fill="#eeff98" fill-opacity="1" width="27px" height="27px">
    <!-- Generator: Sketch 58 (84663) - https://sketch.com -->
    <title>Artboard</title>
    <desc>Created with Sketch.</desc>
    <g id="Artboard" stroke="none" stroke-width="1" fill="" fill-rule="evenodd" style="undefined" fill-opacity="">
        <path d="M21.5,12 L21,12 L21,9.5 C21,8.673 20.327,8 19.5,8 L17,8 L17,3.5 C17,3.224 16.776,3 16.5,3 L6.5,3 C6.224,3 6,3.224 6,3.5 L6,8.05 C4.86,8.282 4,9.292 4,10.5 L4,21.5 C4,22.327 4.673,23 5.5,23 L21.5,23 C22.327,23 23,22.327 23,21.5 L23,13.5 C23,12.673 22.327,12 21.5,12 Z M7,4 L16,4 L16,10 L7,10 L7,4 Z M6,9.086 L6,10.5 C6,10.776 6.224,11 6.5,11 L18.5,11 C18.776,11 19,10.776 19,10.5 C19,10.224 18.776,10 18.5,10 L17,10 L17,9 L19.5,9 C19.776,9 20,9.224 20,9.5 L20,12 L6.5,12 C5.673,12 5,11.327 5,10.5 C5,9.848 5.418,9.292 6,9.086 Z M22,21.5 C22,21.776 21.776,22 21.5,22 L5.5,22 C5.224,22 5,21.776 5,21.5 L5,12.499 C5.418,12.814 5.938,13 6.5,13 L21.5,13 C21.776,13 22,13.224 22,13.5 L22,21.5 Z" id="Shape" fill="" fill-rule="nonzero" style="undefined" fill-opacity=""/>
        <path d="M20.5,21 L16.5,21 C16.224,21 16,20.776 16,20.5 C16,20.224 16.224,20 16.5,20 L20.5,20 C20.776,20 21,20.224 21,20.5 C21,20.776 20.776,21 20.5,21 Z" id="Path" fill="" fill-rule="nonzero" style="undefined" fill-opacity=""/>
        <path d="M8.4846433,7.56074124 C8.2005494,7.41057049 8.2005494,7.00364307 8.4846433,6.85347232 L11.3130704,5.35837853 C11.4300232,5.29655781 11.5699768,5.29655781 11.6869296,5.35837853 L14.5153567,6.85347232 C14.7994506,7.00364307 14.7994506,7.41057049 14.5153567,7.56074124 L11.6869296,9.05583503 C11.5699768,9.11765575 11.4300232,9.11765575 11.3130704,9.05583503 L8.4846433,7.56074124 Z M11.5,8.24975598 L13.4724898,7.20710678 L11.5,6.16445758 L9.52751018,7.20710678 L11.5,8.24975598 Z" id="Shape" fill="" fill-rule="nonzero" style="undefined" fill-opacity=""/>
    </g>
</svg>