<?xml version="1.0" encoding="UTF-8"?>
<svg width="1440px" height="708px" viewBox="0 0 1440 708" version="1.1" xmlns="http://www.w3.org/2000/svg" xmlns:xlink="http://www.w3.org/1999/xlink">
    <!-- Generator: Sketch 58 (84663) - https://sketch.com -->
    <title>Artboard</title>
    <desc>Created with Sketch.</desc>
    <g id="Artboard" stroke="none" stroke-width="1" fill="none" fill-rule="evenodd">
        <g id="wave-(1)" fill="#6F4571" fill-rule="nonzero">
            <path d="M0,96 L30,85.3 C60,75 120,53 180,42.7 C240,32 300,32 360,64 C420,96 480,160 540,192 C600,224 660,224 720,192 C780,160 840,96 900,74.7 C960,53 1020,75 1080,80 C1140,85 1200,75 1260,58.7 C1320,43 1380,21 1410,10.7 L1440,0 L1440,708 L1410,708 C1380,708 1320,708 1260,708 C1200,708 1140,708 1080,708 C1020,708 960,708 900,708 C840,708 780,708 720,708 C660,708 600,708 540,708 C480,708 420,708 360,708 C300,708 240,708 180,708 C120,708 60,708 30,708 L0,708 L0,96 Z" id="Path"></path>
        </g>
    </g>
</svg>