<?xml version="1.0" encoding="UTF-8"?>
<svg width="106px" height="110px" viewBox="0 0 106 110" version="1.1" xmlns="http://www.w3.org/2000/svg" xmlns:xlink="http://www.w3.org/1999/xlink">
    <!-- Generator: Sketch 58 (84663) - https://sketch.com -->
    <title>Artboard Copy 3</title>
    <desc>Created with Sketch.</desc>
    <g id="Artboard-Copy-3" stroke="none" stroke-width="1" fill="none" fill-rule="evenodd">
        <g id="Group" transform="translate(19.000000, 13.000000)">
            <path d="M10.9395837,6.49335725 C10.7700336,4.96343877 11.5939639,4.79549277 12.0271323,4.9027224 C12.0271323,4.9027224 19.1924659,7.88626422 33.5015127,8.13110025 C47.8105216,8.37589911 55.6853107,5.00731219 55.6853107,5.00731219 C56.1188584,4.90212751 56.9419543,5.07405186 56.764818,6.60311518 C56.5876817,8.13221568 56.3164773,12.5501955 56.2030646,14.5680385 L64.4381952,14.5877444 C65.4498065,14.554765 67.3194099,15.1257144 66.7060707,17.6734593 C66.5812788,18.1917234 66.3984529,19.0784128 66.1632827,20.2167424 C64.9544318,26.0729155 62.3702143,38.5898557 59.2773464,41.8729266 C57.1039183,44.4168418 54.1752902,45.6847095 51.8983113,46.2100752 C50.0017772,46.7629548 48.023692,46.6659127 47.3398018,46.6320781 L47.3398018,46.6320781 C47.2415613,46.6272446 47.1702516,46.6238983 47.1296658,46.6235265 C45.6071282,48.8506607 41.7158194,53.6633526 38.3312645,55.1000215 C37.2280506,55.4900488 37.2368505,55.8830506 37.2437918,56.1920237 C37.2443608,56.2173066 37.2449298,56.241846 37.2448539,56.2656418 C37.418273,59.1337742 38.1537489,65.5511925 39.7070104,68.2739477 C39.9133533,68.6803346 39.971008,68.9896795 40.0108352,69.2016104 C40.0544555,69.4336191 40.076076,69.5496234 40.2456261,69.5499952 L42.3045036,69.5548287 C42.5214671,69.5552005 43.0414968,69.5566877 43.3870453,69.9824087 C43.5717677,70.2099556 43.8960751,70.2047503 44.2484511,70.1991732 C44.7203088,70.1913652 45.2437522,70.1831854 45.552508,70.7308596 C45.8828843,71.3175738 45.8142297,71.9440715 45.7789542,72.2668014 C45.7709887,72.3370733 45.7649198,72.3928446 45.7649198,72.4311409 L49.0155794,72.4389489 C49.4130929,72.4396925 50.2069821,72.6326612 50.2050856,73.3974717 L50.1891547,79.7706448 C50.1891547,79.8866491 50.1804307,79.9814604 50.1736031,80.0591684 C50.1425,80.4075531 50.1425,80.4075531 51.0547329,80.409784 L53.8718448,80.4164765 C54.0527741,80.4172202 54.4134949,80.4391569 54.4112191,81.373884 L54.4040122,84.2416446 C54.4036329,84.4543191 54.402495,84.8789247 53.4272972,84.8767113 L13.8868357,84.7818826 C12.9115999,84.7796518 12.912662,84.3546744 12.913193,84.1423716 L12.9203619,81.274611 C12.9226757,80.339884 13.283662,80.3194345 13.4645155,80.3198063 L16.281817,80.3264988 C17.1939741,80.3287297 17.1939741,80.3287297 17.1645399,79.9799731 L17.1645399,79.9799731 L17.1645399,79.9799731 C17.1579779,79.9022651 17.1499745,79.8074539 17.1502779,79.6914496 L17.1661709,73.3182765 C17.1680674,72.5538378 17.9631704,72.3645871 18.3604943,72.3653307 L21.6112297,72.3731387 C21.6113056,72.3352142 21.6054643,72.2794429 21.5981057,72.2087993 C21.5643095,71.8860693 21.4986894,71.2591998 21.8321759,70.6743447 C22.1436627,70.1277859 22.6667648,70.1385684 23.1386983,70.1486072 C23.491264,70.1556716 23.8152679,70.1623641 24.0011662,69.9359326 C24.3489906,69.5116989 24.8690961,69.5131861 25.085832,69.5135579 L27.1446336,69.5183914 C27.3143735,69.5191351 27.3366767,69.4031307 27.3812453,69.1714939 C27.4220587,68.959563 27.481496,68.6505899 27.6895838,68.2453184 C29.25669,65.5299994 30.0239897,59.1162992 30.2117087,56.2489104 C30.2117846,56.2251146 30.2124673,56.2005753 30.2131501,56.1756641 L30.2131501,56.1752923 C30.2216086,55.8663192 30.2324188,55.4733174 29.1310635,55.0777129 C25.7539051,53.6250563 21.8867203,48.7937739 20.3752584,46.5595754 C20.3347105,46.5595754 20.2637801,46.5625499 20.16645,46.5670116 L20.165919,46.5670116 L20.1648948,46.5670116 L20.164819,46.5670116 C19.4807391,46.5974999 17.5024264,46.6852467 15.6085853,46.1234438 C13.3343753,45.5869238 10.4118921,44.3052992 8.25109482,41.7509733 C5.17472676,38.4530301 2.65304183,25.9238202 1.47324207,20.0617725 C1.24391695,18.9223275 1.06528998,18.0348201 0.943141805,17.5159239 C0.342691503,14.9653162 2.21507899,14.4032901 3.22633376,14.4411402 L11.4615099,14.4608461 C11.3581867,12.4424825 11.1091339,8.02331291 10.9395837,6.49335725 Z M5.44483115,17.9922109 C4.17794633,17.9705344 4.47877458,19.4223731 4.70768625,20.5270167 C4.73738598,20.6705349 4.76587192,20.8077323 4.7895786,20.9356345 C4.99584565,22.0469708 5.95412643,26.6283977 8.47534102,33.9987617 C10.9965177,41.3694976 15.8699277,41.9056458 17.9915046,41.2527497 C16.5392146,38.1749172 13.4744533,28.3231018 12.8569418,24.9147313 C12.2393924,21.5063609 11.4712581,18.0952762 10.5672941,18.0798462 L5.44483115,17.9922109 Z M62.8697614,20.965751 C63.1182074,19.8650113 63.4447906,18.4185267 62.1779058,18.4185267 L57.0546084,18.4185267 C56.1507202,18.4185267 55.3219348,21.8157057 54.6437342,25.2129219 C53.9655335,28.6101381 50.7258739,38.4080412 49.2188879,41.4609626 C51.3285925,42.1499241 56.2106507,41.6970611 58.8627641,34.3709423 C61.5148774,27.0444516 62.5545575,22.4804997 62.7806243,21.3725098 C62.8067965,21.2453512 62.8375204,21.1085256 62.8697614,20.965751 L62.8697614,20.965751 Z M41.1335834,32.3880864 L33.7471139,36.9446022 L26.3928096,32.3378922 L33.7254175,42.8184362 L33.7254175,42.8214106 L33.7264417,42.8199234 L33.7275037,42.8214106 L33.7275037,42.8184362 L41.1335834,32.3880864 Z M33.8195615,16.9609622 L33.8195615,16.9542325 L33.8175512,16.9575788 L33.8156167,16.9542325 L33.8155788,16.9608879 L26.3556754,29.4563747 L33.7556104,34.0054543 L33.7555724,34.0076852 L33.7576207,34.0065697 L33.7595551,34.0076852 L33.7595551,34.0054543 L41.1912381,29.5069407 L33.8195615,16.9609622 Z" id="Shape" fill="#FFB636"></path>
            <path d="M56.8269436,4.55851208 C56.8087943,6.48885548 46.7877604,7.97230831 34.4442435,7.87190047 C22.1006512,7.77149263 11.8088805,6.12037665 11.8269436,4.19003325 C11.8450543,2.25972505 22.1661264,0.781128952 34.5097188,0.881536794 C46.8534622,0.981944636 56.8450436,2.62816868 56.8269436,4.55851208 Z" id="Path" fill="#FFD469" fill-rule="nonzero"></path>
            <path d="M49.4290518,12.5732039 C50.5647929,12.5732039 50.7673678,12.5732039 52.8269436,11.8767113 C52.5714893,13.2008251 51.2285075,23.2361505 50.7673678,24.8112151 C49.5355883,29.0197785 48.144004,35.5233073 46.3402713,36.7805034 C45.9973327,37.0190926 44.4867698,36.7805034 43.9245371,36.430322 C43.3623044,36.0801407 45.3106778,32.4723711 47.6785873,24.8112151 C49.0172922,16.5530223 48.6055325,12.9711782 49.4290518,12.5732039 Z" id="Path" fill="#FFCC4E" fill-rule="nonzero"></path>
        </g>
    </g>
</svg>